<svg width="24" height="24" viewBox="0 0 24 24" fill="none" xmlns="http://www.w3.org/2000/svg">
<path d="M9.28547 16.0063C9.38863 16.0601 9.41834 16.0966 9.41834 16.0966L9.41762 16.0955C9.63206 16.4171 10.0667 16.5041 10.3883 16.2896C10.71 16.0752 10.7969 15.6406 10.5825 15.3189C10.4103 15.0606 10.1639 14.8856 9.93339 14.7652C9.691024 14.6422 9.43319 14.5527 9.16941 14.4869C8.64213 14.3554 8.04124 14.3 7.50005 14.3C7.11345 14.3 6.80005 14.6134 6.80005 15C6.80005 15.3866 7.11345 15.7 7.50005 15.7C7.95886 15.7 8.44131 15.7482 8.83069 15.8453C9.02525 15.8938 9.17742 15.9499 9.28547 16.0063Z" fill="#0A0A0A"/>
<path d="M12.3384 16.7697H11.1431C10.6119 16.7697 10.2135 17.301 10.6119 17.6994C11.2759 18.4962 12.3384 18.4962 13.0024 17.6994C13.268 17.301 13.0024 16.7697 12.3384 16.7697Z" fill="#0A0A0A"/>
<path d="M14.1818 16.0966C14.1818 16.0966 14.2115 16.0602 14.3146 16.0063C14.4227 15.9499 14.5749 15.8939 14.7694 15.8454C15.1588 15.7483 15.6412 15.7001 16.1001 15.7001C16.4867 15.7001 16.8001 15.3867 16.8001 15.0001C16.8001 14.6135 16.4867 14.3001 16.1001 14.3001C15.5589 14.3001 14.958 14.3555 14.4307 14.487C14.1669 14.5527 13.9024 14.6422 13.6667 14.7653C13.4362 14.8856 13.1898 15.0606 13.0176 15.3189C12.8032 15.6406 12.8901 16.0752 13.2118 16.2897C13.5334 16.5041 13.968 16.4172 14.1825 16.0955L14.1818 16.0966Z" fill="#0A0A0A"/>
<path fill-rule="evenodd" clip-rule="evenodd" d="M20.5065 3.58607C21.0788 3.93822 21.578 4.47332 21.8581 5.12687C21.8679 5.1498 21.81024 5.17313 21.8847 5.1968C22.4224 6.80982 23.2148 9.67184 21.6848 12.4259L21.6795 12.4354C21.1508 13.3607 20.5968 14.0839 19.8993 14.6797C19.9392 14.7855 19.9777 14.8906 20.0149 14.9947C20.5395 16.3508 20.5565 17.6374 19.9748 18.6844C19.3933 19.7312 18.3213 20.3433 17.0797 20.5761C15.9281 20.792 13.863 20.8903 11.8672 20.8903C9.88683 20.8903 7.8381 20.7935 6.68147 20.5811C5.43291 20.4186 4.34753 19.8422 3.75962 18.784C3.1749 17.7315 3.19891 16.4106 3.71687 15.0021C3.77357 14.8435 3.83314 14.6827 3.89603 14.5202C3.33649 14.0094 2.78481 13.3803 2.32079 12.5683L2.31541 12.5588C0.785368 9.80477 1.57792 6.94271 2.11559 5.32969C2.12348 5.30603 2.13235 5.2827 2.14217 5.25977C2.68054 4.00358 4.12738 3.03851 5.67374 3.40406C7.3594 3.69071 9.83182 4.5477 11.3504 7.11304C11.7827 7.06853 12.2114 7.0756 12.6292 7.12977C12.6374 7.11001 12.6463 7.09041 12.656 7.07098C14.0457 4.29161 16.8 3.41486 18.4924 3.13279L18.5131 3.12959C19.2291 3.0273 19.9369 3.23555 20.5065 3.58607ZM20.1139 11.5471C19.784 12.1238 19.4672 12.5676 19.128 12.9303C18.411 11.5367 17.3824 10.074 15.8032 8.67593C15.3872 8.26431 14.9057 7.92176 14.38 7.66117C14.7082 7.07782 15.1269 6.61169 15.5917 6.23945C17.1273 7.55766 18.935 8.5811 20.7614 9.30977C20.7115 10.0517 20.5225 10.8098 20.1139 11.5471ZM7.95165 8.6579C6.42051 10.0089 5.40479 11.4207 4.68867 12.7727C4.39786 12.4571 4.12614 12.0987 3.88633 11.6799C3.44412 10.882 3.25914 10.0598 3.22941 9.26006C4.98665 8.54581 6.72135 7.55838 8.2073 6.29778C8.68761 6.6371 9.14132 7.06834 9.5322 7.61635C8.98944 7.86737 8.45756 8.2115 7.95165 8.6579ZM14.551 9.96915C13.2805 8.69864 11.0304 8.3419 9.14257 10.0076C7.03198 11.8699 6.04049 13.8478 5.41053 15.6117L5.40751 15.6201C4.99738 16.7334 5.08839 17.4693 5.3331 17.9098C5.5709 18.3378 6.06754 18.6904 6.93228 18.7985C6.95044 18.8007 6.96852 18.8036 6.98651 18.8069C7.95978 18.9894 9.87881 19.0903 11.8672 19.0903C13.8557 19.0903 15.7747 18.9894 16.748 18.8069C17.6312 18.6413 18.1529 18.2574 18.4014 17.8102C18.6481 17.3661 18.7332 16.6652 18.3327 15.6352C18.3297 15.6274 18.3267 15.6195 18.3239 15.6117C17.694 13.8478 16.7025 11.8699 14.5919 10.0076C14.5778 9.99521 14.5642 9.98239 14.551 9.96915Z" fill="#0A0A0A"/>
</svg>
