<?xml version="1.0" encoding="utf-8"?>
<!-- Generator: Adobe Illustrator 26.5.0, SVG Export Plug-In . SVG Version: 6.00 Build 0)  -->
<svg version="1.1" id="圖層_1" xmlns="http://www.w3.org/2000/svg" xmlns:xlink="http://www.w3.org/1999/xlink" x="0px" y="0px"
	 viewBox="0 0 70 70" style="enable-background:new 0 0 70 70;" xml:space="preserve">
<style type="text/css">
	.st0{fill:#B4EBE3;}
	.st1{clip-path:url(#SVGID_00000122716721912583010620000009194374798958645414_);}
	.st2{fill:#E43215;}
	.st3{fill:#FF673F;}
	.st4{fill:#FFEFDB;}
	.st5{fill:#8A121C;}
	.st6{fill:#E94444;}
	.st7{fill:#E63F26;}
	.st8{fill:#FFFFFF;}
	.st9{fill:#606060;}
	.st10{fill:#FFDD52;}
	.st11{opacity:0.3;fill:url(#SVGID_00000165955679602987400930000004798789646025624707_);enable-background:new    ;}
	.st12{opacity:0.75;fill:#FFFFFF;enable-background:new    ;}
	.st13{fill:#ECECEC;}
	.st14{fill:none;stroke:#FFFFFF;stroke-width:0.5;}
	.st15{clip-path:url(#SVGID_00000043420369955831815550000011747022756615768201_);}
	.st16{opacity:0.3;fill:url(#SVGID_00000147898812415738664600000003426436017563698108_);enable-background:new    ;}
	.st17{clip-path:url(#SVGID_00000159431424890530875570000014707518255570396595_);}
</style>
<g>
	<defs>
		<rect id="SVGID_00000134217926434367199660000006505149390228779418_" width="70" height="70"/>
	</defs>
	<clipPath id="SVGID_00000132768810936658976330000004609208044429067393_">
		<use xlink:href="#SVGID_00000134217926434367199660000006505149390228779418_"  style="overflow:visible;"/>
	</clipPath>
	<g style="clip-path:url(#SVGID_00000132768810936658976330000004609208044429067393_);">
		<g>
			<g>
				<path class="st3" d="M66.97,61.04c-1.35,3.55-7.59,4.91-20.38,3.58c0,0-1.32-3.27-0.72-5.81c0,0,9.56-2.37,13.2-3.18
					C63.46,54.64,68.33,57.43,66.97,61.04z"/>
			</g>
		</g>
		<g>
			<g>
				<g>
					<g>
						<path class="st3" d="M14.24,65.9c-1.85,9.37,4.69,16.22,14.06,18.07c9.37,1.85,18.02-1.99,19.88-11.36
							c1.85-9.37-3.8-20.72-13.17-22.58S16.1,56.52,14.24,65.9z"/>
					</g>
				</g>
			</g>
			<g>
				<g>
					<path class="st4" d="M44.3,77.86c2.05-1.53,3.13-2.61,3.2-4.69c0.05-1.45-1.26-2.72-1.45-3.91c-0.26-1.7-0.13-3.12,0.92-6.58
						c0.15-0.49,0.18-0.96,0.12-1.42c-0.32-0.82-0.68-1.63-1.09-2.4c-0.95-1.23-2.33-2.29-3.52-3.13c-0.82,0.12-1.63,0.44-2.32,0.98
						l-0.53,0.42c-2.04,1.61-5.05,1.47-6.71-0.31l-0.24-0.26c-1.66-1.78-4.67-1.92-6.71-0.31l-1.06,0.84
						c-2.04,1.61-2.35,4.35-0.69,6.13l0.24,0.26c1.66,1.78,1.35,4.53-0.69,6.13l-0.3,0.23c-2.04,1.61-2.35,4.35-0.69,6.13l0.86,0.93
						c1.66,1.78,4.67,1.92,6.71,0.31l0.3-0.23c2.04-1.61,5.05-1.47,6.71,0.31l0.24,0.26C39.25,79.33,42.26,79.4,44.3,77.86z"/>
				</g>
			</g>
		</g>
		<g>
			<path class="st3" d="M15.3,58.66c-2.52,0.54-8.74,5.85-11.81,11.99h11.26l2.91-11.03L15.3,58.66z"/>
		</g>
		<g>
			<g>
				<g>
					<g>
						<path class="st3" d="M16.27,3.71c-6.09-2.66-8.3-1.85-11.93,4.43c-7.47,12.88-1.99,29.48,12.45,34.01l12.17-4.51l0,0
							C36.97,24.77,31.56,10.39,16.27,3.71z"/>
					</g>
				</g>
				<g>
					<g>
						<path d="M16.69,22.87c-3.81,1.41-10.26,0.92-15.66-1.55c-0.17-4.43,0.88-9.01,3.31-13.19c3.64-6.27,5.84-7.09,11.93-4.43
							c4.68,2.05,8.43,4.82,11.16,8.04C24.92,17.03,20.43,21.49,16.69,22.87z"/>
					</g>
				</g>
				<g>
					<g>
						<path class="st5" d="M16.92,12.42c-3.82-1.86-5.17-1.36-7.32,2.72c-4.42,8.36-0.74,19.4,8.29,22.63l7.47-2.77l0,0
							C30.1,26.66,26.5,17.08,16.92,12.42z"/>
					</g>
				</g>
			</g>
			<g>
				<g>
					<g>
						<path class="st3" d="M48.16,2.32c5.94-2.98,8.18-2.29,12.15,3.78c8.15,12.46,3.56,29.33-10.62,34.62l-12.4-3.86l0,0
							C28.62,24.46,33.25,9.81,48.16,2.32z"/>
					</g>
				</g>
				<g>
					<g>
						<path d="M48.77,21.49c3.88,1.21,10.29,0.37,15.55-2.39c-0.07-4.43-1.36-8.95-4.01-12.99c-3.97-6.07-6.21-6.77-12.15-3.78
							c-4.57,2.29-8.16,5.26-10.72,8.63C40.24,16.09,44.95,20.3,48.77,21.49z"/>
					</g>
				</g>
				<g>
					<g>
						<path class="st5" d="M47.98,11.06c3.72-2.06,5.09-1.63,7.46,2.32c4.86,8.12,1.77,19.33-7.07,23.04l-7.61-2.37l0,0
							C35.57,25.98,38.65,16.23,47.98,11.06z"/>
					</g>
				</g>
			</g>
			<g>
				<g>
					<g>
						<path class="st3" d="M6.41,44.02c1.66-1.55,6.34-3.97,6.34-3.97c2.64-7.09,9.07-18.38,20.82-18.57
							c11.63-0.18,18.64,10.9,21.57,17.9c0,0,4.77,2.27,6.5,3.77c1.8,1.56,2,3.15-0.51,4.57c-1.41,0.8-2.87,1.7-2.87,1.7
							s0.93,0.58,2.22,1.76c1.48,1.36,0.1,4.7-6.89,6.46c0,0-8.26,4.89-19.16,5.06s-19.36-4.46-19.36-4.46
							C8,56.71,6.48,53.41,7.91,52.01c1.24-1.22,2.14-1.83,2.14-1.83s-1.5-0.86-2.94-1.61C4.54,47.22,4.67,45.63,6.41,44.02z"/>
					</g>
				</g>
				<g>
					<g>
						<path class="st2" d="M13.9,37.48c-0.03-0.01-0.06-0.02-0.09-0.03c-0.28-0.13-0.4-0.46-0.27-0.75
							c4.34-9.31,9.88-13.06,13.77-14.57c0.29-0.11,0.61,0.03,0.73,0.32c0.11,0.29-0.03,0.61-0.32,0.73
							c-3.69,1.44-8.98,5.03-13.16,14C14.44,37.43,14.16,37.55,13.9,37.48z"/>
					</g>
				</g>
				<g>
					<g>
						<path class="st2" d="M52.78,35.42c-0.14-0.04-0.26-0.13-0.34-0.26C50,30.82,45.77,25.2,39.49,23
							c-0.29-0.1-0.45-0.42-0.34-0.72c0.1-0.29,0.42-0.45,0.72-0.34c6.61,2.32,11.02,8.17,13.56,12.66
							c0.15,0.27,0.06,0.61-0.21,0.76C53.08,35.44,52.92,35.45,52.78,35.42z"/>
					</g>
				</g>
			</g>
			<g>
				<g>
					<g>
						<path class="st3" d="M31.03,20.77c1.09-4.05,4.94-7.19,9.36-7.56l0.9-0.07c0.82-0.06,1.39,0.82,1,1.55l-0.12,0.22
							c-1.1,2.03-1.48,4.39-1.06,6.68l0.41,2.23l-0.58,0.41c-3.07,2.13-7.06,2.36-10.37,0.59C30.55,24.8,30.2,23.87,31.03,20.77z"/>
					</g>
				</g>
				<g>
					<g>
						<path class="st3" d="M34.35,20.94c3.78-2.83,9.17-3.22,13.53-0.7l1.26,0.73c0.66,0.38,0.64,1.35-0.04,1.7l-0.68,0.34
							c-3.12,1.26-6.27,3.83-6.87,7.97l-0.81,0c-4.27,0-8.19-2.38-10.19-6.18C30.55,24.8,31.4,23.16,34.35,20.94z"/>
					</g>
				</g>
				<g>
					<g>
						<path class="st2" d="M41.62,30.48c-0.29-0.08-0.47-0.38-0.39-0.68c1.15-4.42,4.79-6.49,6.86-7.33c0.01,0,0.01-0.01,0.02-0.01
							l0.66-0.24c0.29-0.1,0.61,0.05,0.72,0.34c0.1,0.29-0.05,0.61-0.34,0.72l-0.65,0.23c-1.88,0.76-5.17,2.63-6.19,6.57
							C42.23,30.38,41.93,30.56,41.62,30.48C41.63,30.48,41.62,30.48,41.62,30.48z"/>
					</g>
				</g>
			</g>
			<g>
				<g>
					<path class="st4" d="M7.91,52.01c1.24-1.22,2.14-1.83,2.14-1.83s-1.5-0.86-2.94-1.61c-2.57-1.34-2.44-2.93-0.7-4.55
						c0.94-0.87,2.83-2.02,4.31-2.86c-1.21,1.3-1.96,2.36-1.39,3.6c0.94,2.04,5.64,1.37,5.64,1.37s-1.31,1.4-2.04,2.32
						c-0.76,0.95,0.8,2.82,3.55,0.87c2.53-1.79,3.59-2.82,6.79-5.22c2.45-1.83,5.06-3.42,7.98-1.46c0.79,0.53,1.39,0.53,1.6-0.24
						c1.1-4.18,4.38-4.14,5.31-0.94c1.1-3.01,3.48-2.69,4.38-0.01c0.25,0.76,0.74,1.06,1.35,0.34c1.54-1.81,3.01-2.16,5.73-0.76
						c3.73,1.91,6.64,3.29,8.29,3.91c2.84,1.07,3.63-0.75,2.34-2.04c-0.75-0.74-2.13-1.94-2.13-1.94s0.03,0,0.06-0.01
						c1.3,0.71,2.69,1.54,3.47,2.21c1.8,1.56,2,3.15-0.51,4.57c-1.41,0.8-2.87,1.7-2.87,1.7s0.93,0.58,2.22,1.76
						c1.48,1.36,0.1,4.7-6.89,6.46c0,0-8.26,4.89-19.16,5.06s-19.36-4.46-19.36-4.46C8,56.71,6.48,53.41,7.91,52.01z"/>
				</g>
			</g>
			<g>
				<g>
					<path class="st6" d="M39.21,46.63c0,0-0.61,4.37-1.46,8.4c-0.52,2.47-3.37,2.19-2.45-2.13c0.59-2.79,0.94-5.93,0.94-5.93
						L39.21,46.63z"/>
				</g>
				<g>
					<path d="M40.82,46.74c-0.19,0.13-0.43,0.24-0.71,0.34c-1.57,0.54-3.02,0.32-3.75,0.14c-0.36-0.09-0.58-0.45-0.49-0.81
						c0.09-0.36,0.45-0.58,0.81-0.49c0.99,0.25,2.08,0.21,2.99-0.1c0.5-0.17,0.7-0.4,0.72-0.56c0.01-0.11-0.06-0.21-0.12-0.25
						c-0.05-0.03-0.12-0.05-0.24,0.02c-0.36,0.23-0.73,0.38-1.1,0.46c-0.48,0.09-0.96-0.04-1.33-0.37
						c-0.37-0.33-0.56-0.79-0.53-1.29l0.09-1.41c0.03-0.37,0.34-0.65,0.71-0.62c0.37,0.03,0.65,0.34,0.62,0.71l-0.1,1.41
						c-0.01,0.1,0.05,0.17,0.08,0.19c0.03,0.03,0.1,0.07,0.19,0.05c0.2-0.04,0.41-0.13,0.62-0.26c0.53-0.34,1.15-0.36,1.67-0.04
						c0.52,0.32,0.82,0.93,0.75,1.53C41.69,45.68,41.54,46.27,40.82,46.74z"/>
				</g>
				<g>
					<g>
						<path d="M37.73,39.91c1.21-0.02,2.21,0.84,2.23,1.91c0.02,1.08-0.94,1.96-2.15,1.98c-1.21,0.02-2.21-0.84-2.23-1.91
							C35.56,40.81,36.52,39.93,37.73,39.91z"/>
					</g>
				</g>
				<g>
					<g>
						<g>
							<path class="st7" d="M33.22,34.81c0.59,0.12,1,0.65,0.91,1.18c-0.09,0.53-0.65,0.86-1.24,0.73c-0.59-0.12-1-0.65-0.91-1.18
								C32.06,35.02,32.62,34.69,33.22,34.81z"/>
						</g>
					</g>
					<g>
						<g>
							<path class="st7" d="M39.41,34.38c-0.59,0.14-0.97,0.68-0.86,1.21c0.11,0.53,0.68,0.84,1.27,0.69
								c0.59-0.14,0.97-0.68,0.86-1.21C40.57,34.55,40,34.24,39.41,34.38z"/>
						</g>
					</g>
					<g>
						<g>
							<path d="M31.76,41.86c-0.1-0.03-0.19-0.08-0.27-0.15c-1.13-0.98-2.67-1.48-4.11-1.33c-0.39,0.04-0.73-0.24-0.77-0.63
								c-0.04-0.39,0.24-0.73,0.63-0.77c1.82-0.19,3.76,0.43,5.17,1.66c0.29,0.25,0.32,0.7,0.07,0.99
								C32.3,41.85,32.01,41.93,31.76,41.86z"/>
						</g>
					</g>
				</g>
			</g>
			<g>
				<g>
					<path class="st4" d="M58.18,49.05c5.48,3.3,3.58,5.59-2.66,8.6c-14.17,6.83-25.4,6.83-38.97,2.03
						c-12.04-4.26-10.48-6.73-6.5-9.49c0,0,3.88,4.27,13.64,6.77s27.68-2.14,27.68-2.14L58.18,49.05z"/>
				</g>
			</g>
		</g>
		<g>
			<g>
				<g>
					<path class="st3" d="M66.83,46.16l-7.19,1.05l-2.68-3.04c0,0-3.75-3.09-5.36,0.84c-1.78,4.35,1.37,5.89,4.24,10.94
						c1.18,2.07,2.67,4.94,3.41,5.99c1.59,2.55,6.24,2.72,7.71-0.89C68.22,57.94,68.46,49.85,66.83,46.16z"/>
				</g>
			</g>
			<g>
				<g>
					<path class="st2" d="M59.73,63.29c-0.11-0.03-0.22-0.1-0.3-0.2c-0.03-0.05-0.07-0.09-0.11-0.13c-0.16-0.2-0.37-0.46-0.7-1.03
						c-0.09-0.15-0.21-0.35-0.35-0.59c-0.38-0.64-0.96-1.62-1.55-2.66c-0.15-0.27-0.06-0.61,0.21-0.76
						c0.27-0.15,0.61-0.06,0.76,0.21c0.59,1.03,1.16,2,1.54,2.64c0.15,0.25,0.27,0.45,0.36,0.6c0.3,0.51,0.46,0.72,0.61,0.9
						c0.04,0.05,0.08,0.1,0.12,0.15c0.19,0.25,0.14,0.6-0.11,0.79C60.08,63.31,59.9,63.34,59.73,63.29z"/>
				</g>
			</g>
		</g>
		<g>
			<g>
				<g>
					<circle class="st8" cx="49.12" cy="38.41" r="7.31"/>
				</g>
			</g>
			<g>
				<g>
					<circle cx="49.12" cy="38.41" r="3.21"/>
				</g>
			</g>
			<g>
				<g>
					<path class="st9" d="M46.62,47.37c-1.81-0.5-3.42-1.53-4.65-3.01c-3.29-3.94-2.75-9.82,1.19-13.1
						c3.94-3.29,9.82-2.75,13.1,1.19c0,0,0,0,0,0c1.59,1.91,2.34,4.32,2.12,6.8c-0.22,2.47-1.4,4.71-3.31,6.31
						c-1.91,1.59-4.32,2.34-6.8,2.12C47.71,47.62,47.16,47.52,46.62,47.37z M51.04,31.47c-2.2-0.61-4.65-0.16-6.53,1.41
						c-3.05,2.54-3.46,7.09-0.92,10.14c2.54,3.05,7.09,3.46,10.14,0.92c1.48-1.23,2.39-2.96,2.56-4.88
						c0.17-1.92-0.41-3.78-1.64-5.26C53.67,32.63,52.4,31.85,51.04,31.47z"/>
				</g>
			</g>
			<g>
				<g>
					<path class="st9" d="M60.41,53.25c-0.2-0.05-0.38-0.17-0.52-0.34l-6.29-7.49c-0.37-0.44-0.32-1.11,0.13-1.48
						c0.44-0.37,1.11-0.32,1.48,0.13l6.29,7.49c0.37,0.44,0.32,1.11-0.13,1.48C61.09,53.27,60.74,53.34,60.41,53.25z"/>
				</g>
			</g>
		</g>
		<g>
			<g>
				<path class="st3" d="M60.03,39.96c-2.24-0.75-4.81-0.57-5.2,2.95c-0.29,2.64,3.43,6.51,7.32,8.52c3.37,1.74,5.94-2.49,4.68-5.27
					C65.23,42.62,62.21,40.69,60.03,39.96z"/>
			</g>
		</g>
		<g>
			<g>
				<g>
					<path class="st10" d="M60.9,34.24c0.5,1.37,0.34,2.72-0.62,3.59c1.23-0.4,2.48,0.15,3.42,1.26c-0.5-1.37-0.34-2.72,0.62-3.59
						C63.08,35.9,61.84,35.35,60.9,34.24z"/>
				</g>
			</g>
			<g>
				<g>
					<path class="st10" d="M66.99,35.91c0.29,0.81,0.2,1.61-0.36,2.12c0.73-0.23,1.46,0.09,2.01,0.74c-0.29-0.81-0.2-1.61,0.36-2.12
						C68.27,36.89,67.54,36.57,66.99,35.91z"/>
				</g>
			</g>
			<g>
				<g>
					<path class="st10" d="M61.68,43.63c0.31,0.86,0.22,1.72-0.39,2.26c0.78-0.25,1.57,0.09,2.16,0.8
						c-0.31-0.86-0.22-1.72,0.39-2.26C63.06,44.68,62.27,44.33,61.68,43.63z"/>
				</g>
			</g>
		</g>
	</g>
</g>
</svg>
